# xmcd CD database file
#
# Track frame offsets:
#	150
#	14062
#	29365
#	45495
#	61252
#	74242
#	87142
#	102295
#	118950
#	132607
#	149245
#	165830
#	184960
#	199895
#	218802
#	238009
#	252187
#	264067
#	278177
#	292700
#	307932
#
# Disc length: 4351 seconds
#
# Revision: 0
# Processed by: cddbd v1.5.2PL0 Copyright (c) Steve Scherf et al.
# Submitted via: CDex 1.70beta2
#
DISCID=3f10fd15
DTITLE=ChartBreakers - CGC-548
DYEAR=1900
DGENRE=Country
TTITLE0=Skip Ewing - It's You Again
TTITLE1=Exile - Keep It In The Middle Of The Road
TTITLE2=Exile - She's A Miracle
TTITLE3=Forester Sisters - Lonely Alone
TTITLE4=Lee Greenwood - Hearts Aren't Made To Break (They're Made To Love)
TTITLE5=Lee Greenwood - Holdin' A Good Hand
TTITLE6=Highway 101 - Someone Else's Trouble Now
TTITLE7=Michael Johnson - Give Me Wings
TTITLE8=Ronnie McDowell - Wandering Eyes
TTITLE9=Ronnie Milsap - Button Off My Shirt
TTITLE10=Gary Morris - I'll Never Stop Loving You
TTITLE11=Michael Martin Murphy - Still Takin' Chances
TTITLE12=Eddy Raven - In A Letter To You
TTITLE13=Kenny Rogers - Morning Desire
TTITLE14=Kenny Rogers - She Believes In Me
TTITLE15=Dan Seals - God Must Be A Cowboy
TTITLE16=Ricky Van Shelton - Don't We All Have The Right
TTITLE17=T G Sheppard - Do You Wanna Go To Heaven
TTITLE18=T G Sheppard - Smooth Sailin'
TTITLE19=T G Sheppard - War Is Hell (On The Homefront Too)
TTITLE20=Steve Wariner - Some Fools Never Learn
EXTD=YEAR: 1900
EXTT0=
EXTT1=
EXTT2=
EXTT3=
EXTT4=
EXTT5=
EXTT6=
EXTT7=
EXTT8=
EXTT9=
EXTT10=
EXTT11=
EXTT12=
EXTT13=
EXTT14=
EXTT15=
EXTT16=
EXTT17=
EXTT18=
EXTT19=
EXTT20=
PLAYORDER=
